HIERARCHY
ROOT mixamorig:Hips
{
	OFFSET -0.000008 104.274872 1.554316
	CHANNELS 6 Xposition Yposition Zposition Xrotation Yrotation Zrotation
	JOINT mixamorig:Spine
	{
		OFFSET -0.000005 10.181595 0.131519
		CHANNELS 6 Xposition Yposition Zposition Xrotation Yrotation Zrotation
		JOINT mixamorig:Spine1
		{
			OFFSET -0.000000 9.893959 -1.470707
			CHANNELS 6 Xposition Yposition Zposition Xrotation Yrotation Zrotation
			JOINT mixamorig:Spine2
			{
				OFFSET -0.000000 9.220757 -1.370641
				CHANNELS 6 Xposition Yposition Zposition Xrotation Yrotation Zrotation
				JOINT mixamorig:Neck
				{
					OFFSET 0.000001 16.740417 -2.049036
					CHANNELS 6 Xposition Yposition Zposition Xrotation Yrotation Zrotation
					JOINT mixamorig:Head
					{
						OFFSET 0.000000 9.617874 1.685006
						CHANNELS 6 Xposition Yposition Zposition Xrotation Yrotation Zrotation
						JOINT mixamorig:HeadTop_End
						{
							OFFSET 0.000002 22.037354 7.501101
							CHANNELS 6 Xposition Yposition Zposition Xrotation Yrotation Zrotation
							End Site
							{
								OFFSET 0.000168 2310.654297 -282.823242
							}
						}
					}
				}
				JOINT mixamorig:RightShoulder
				{
					OFFSET -4.569970 11.014908 -2.160885
					CHANNELS 6 Xposition Yposition Zposition Xrotation Yrotation Zrotation
					JOINT mixamorig:RightArm
					{
						OFFSET -10.592851 -0.524811 -2.232101
						CHANNELS 6 Xposition Yposition Zposition Xrotation Yrotation Zrotation
						JOINT mixamorig:RightForeArm
						{
							OFFSET -27.841511 0.000031 -0.000004
							CHANNELS 6 Xposition Yposition Zposition Xrotation Yrotation Zrotation
							JOINT mixamorig:RightHand
							{
								OFFSET -28.328831 -0.000015 0.000015
								CHANNELS 6 Xposition Yposition Zposition Xrotation Yrotation Zrotation
								JOINT mixamorig:RightHandThumb1
								{
									OFFSET -2.464806 -1.573990 2.681852
									CHANNELS 6 Xposition Yposition Zposition Xrotation Yrotation Zrotation
									JOINT mixamorig:RightHandThumb2
									{
										OFFSET -3.215179 -1.872803 1.924282
										CHANNELS 6 Xposition Yposition Zposition Xrotation Yrotation Zrotation
										JOINT mixamorig:RightHandThumb3
										{
											OFFSET -2.654831 -1.527969 1.512609
											CHANNELS 6 Xposition Yposition Zposition Xrotation Yrotation Zrotation
											JOINT mixamorig:RightHandThumb4
											{
												OFFSET -2.018814 -1.152008 1.108052
												CHANNELS 6 Xposition Yposition Zposition Xrotation Yrotation Zrotation
												End Site
												{
													OFFSET -188.809540 -114.533607 132.431396
												}
											}
										}
									}
								}
								JOINT mixamorig:RightHandIndex1
								{
									OFFSET -9.108284 -0.517868 2.259835
									CHANNELS 6 Xposition Yposition Zposition Xrotation Yrotation Zrotation
									JOINT mixamorig:RightHandIndex2
									{
										OFFSET -3.699989 0.000000 0.001215
										CHANNELS 6 Xposition Yposition Zposition Xrotation Yrotation Zrotation
										JOINT mixamorig:RightHandIndex3
										{
											OFFSET -2.850006 0.000031 -0.000522
											CHANNELS 6 Xposition Yposition Zposition Xrotation Yrotation Zrotation
											JOINT mixamorig:RightHandIndex4
											{
												OFFSET -2.772186 -0.000015 -0.000020
												CHANNELS 6 Xposition Yposition Zposition Xrotation Yrotation Zrotation
												End Site
												{
													OFFSET -277.218445 0.000000 -0.050231
												}
											}
										}
									}
								}
								JOINT mixamorig:RightHandMiddle1
								{
									OFFSET -9.532516 -0.000031 -0.000023
									CHANNELS 6 Xposition Yposition Zposition Xrotation Yrotation Zrotation
									JOINT mixamorig:RightHandMiddle2
									{
										OFFSET -3.700005 -0.000015 0.003713
										CHANNELS 6 Xposition Yposition Zposition Xrotation Yrotation Zrotation
										JOINT mixamorig:RightHandMiddle3
										{
											OFFSET -2.949974 0.000015 -0.002054
											CHANNELS 6 Xposition Yposition Zposition Xrotation Yrotation Zrotation
											JOINT mixamorig:RightHandMiddle4
											{
												OFFSET -2.946640 0.000000 -0.000156
												CHANNELS 6 Xposition Yposition Zposition Xrotation Yrotation Zrotation
												End Site
												{
													OFFSET -294.664337 0.000000 -0.113670
												}
											}
										}
									}
								}
								JOINT mixamorig:RightHandRing1
								{
									OFFSET -9.103600 -0.043076 -1.865134
									CHANNELS 6 Xposition Yposition Zposition Xrotation Yrotation Zrotation
									JOINT mixamorig:RightHandRing2
									{
										OFFSET -3.379288 0.000000 -0.001055
										CHANNELS 6 Xposition Yposition Zposition Xrotation Yrotation Zrotation
										JOINT mixamorig:RightHandRing3
										{
											OFFSET -2.889687 -0.000015 0.000379
											CHANNELS 6 Xposition Yposition Zposition Xrotation Yrotation Zrotation
											JOINT mixamorig:RightHandRing4
											{
												OFFSET -2.638809 -0.000015 0.000941
												CHANNELS 6 Xposition Yposition Zposition Xrotation Yrotation Zrotation
												End Site
												{
													OFFSET -263.880371 0.000000 0.516020
												}
											}
										}
									}
								}
								JOINT mixamorig:RightHandPinky1
								{
									OFFSET -8.076683 -0.486710 -3.806280
									CHANNELS 6 Xposition Yposition Zposition Xrotation Yrotation Zrotation
									JOINT mixamorig:RightHandPinky2
									{
										OFFSET -3.600014 -0.000015 -0.003747
										CHANNELS 6 Xposition Yposition Zposition Xrotation Yrotation Zrotation
										JOINT mixamorig:RightHandPinky3
										{
											OFFSET -2.099983 0.000000 -0.005739
											CHANNELS 6 Xposition Yposition Zposition Xrotation Yrotation Zrotation
											JOINT mixamorig:RightHandPinky4
											{
												OFFSET -2.115768 -0.000031 -0.003680
												CHANNELS 6 Xposition Yposition Zposition Xrotation Yrotation Zrotation
												End Site
												{
													OFFSET -211.577087 0.000000 -0.350686
												}
											}
										}
									}
								}
							}
						}
					}
				}
				JOINT mixamorig:LeftShoulder
				{
					OFFSET 4.570447 11.014725 -2.160855
					CHANNELS 6 Xposition Yposition Zposition Xrotation Yrotation Zrotation
					JOINT mixamorig:LeftArm
					{
						OFFSET 10.592371 -0.524597 -2.232119
						CHANNELS 6 Xposition Yposition Zposition Xrotation Yrotation Zrotation
						JOINT mixamorig:LeftForeArm
						{
							OFFSET 27.841532 -0.000031 0.000026
							CHANNELS 6 Xposition Yposition Zposition Xrotation Yrotation Zrotation
							JOINT mixamorig:LeftHand
							{
								OFFSET 28.328846 -0.000061 0.000022
								CHANNELS 6 Xposition Yposition Zposition Xrotation Yrotation Zrotation
								JOINT mixamorig:LeftHandThumb1
								{
									OFFSET 2.466141 -1.576172 2.681732
									CHANNELS 6 Xposition Yposition Zposition Xrotation Yrotation Zrotation
									JOINT mixamorig:LeftHandThumb2
									{
										OFFSET 3.217812 -1.872070 1.916482
										CHANNELS 6 Xposition Yposition Zposition Xrotation Yrotation Zrotation
										JOINT mixamorig:LeftHandThumb3
										{
											OFFSET 2.656029 -1.528778 1.514513
											CHANNELS 6 Xposition Yposition Zposition Xrotation Yrotation Zrotation
											JOINT mixamorig:LeftHandThumb4
											{
												OFFSET 2.020889 -1.154053 1.115139
												CHANNELS 6 Xposition Yposition Zposition Xrotation Yrotation Zrotation
												End Site
												{
													OFFSET 190.885437 -115.081749 130.048782
												}
											}
										}
									}
								}
								JOINT mixamorig:LeftHandIndex1
								{
									OFFSET 9.109314 -0.518021 2.259871
									CHANNELS 6 Xposition Yposition Zposition Xrotation Yrotation Zrotation
									JOINT mixamorig:LeftHandIndex2
									{
										OFFSET 3.699989 0.000000 -0.000322
										CHANNELS 6 Xposition Yposition Zposition Xrotation Yrotation Zrotation
										JOINT mixamorig:LeftHandIndex3
										{
											OFFSET 2.850006 0.000000 0.000352
											CHANNELS 6 Xposition Yposition Zposition Xrotation Yrotation Zrotation
											JOINT mixamorig:LeftHandIndex4
											{
												OFFSET 2.774864 -0.000031 -0.000027
												CHANNELS 6 Xposition Yposition Zposition Xrotation Yrotation Zrotation
												End Site
												{
													OFFSET 277.486267 0.000000 -0.009857
												}
											}
										}
									}
								}
								JOINT mixamorig:LeftHandMiddle1
								{
									OFFSET 9.533394 0.000061 0.000044
									CHANNELS 6 Xposition Yposition Zposition Xrotation Yrotation Zrotation
									JOINT mixamorig:LeftHandMiddle2
									{
										OFFSET 3.699989 -0.000015 -0.000231
										CHANNELS 6 Xposition Yposition Zposition Xrotation Yrotation Zrotation
										JOINT mixamorig:LeftHandMiddle3
										{
											OFFSET 2.949997 -0.000015 -0.000059
											CHANNELS 6 Xposition Yposition Zposition Xrotation Yrotation Zrotation
											JOINT mixamorig:LeftHandMiddle4
											{
												OFFSET 2.952896 0.000031 0.000063
												CHANNELS 6 Xposition Yposition Zposition Xrotation Yrotation Zrotation
												End Site
												{
													OFFSET 295.289337 0.000000 0.022810
												}
											}
										}
									}
								}
								JOINT mixamorig:LeftHandRing1
								{
									OFFSET 9.104523 -0.042999 -1.865074
									CHANNELS 6 Xposition Yposition Zposition Xrotation Yrotation Zrotation
									JOINT mixamorig:LeftHandRing2
									{
										OFFSET 3.150009 -0.000031 0.000043
										CHANNELS 6 Xposition Yposition Zposition Xrotation Yrotation Zrotation
										JOINT mixamorig:LeftHandRing3
										{
											OFFSET 2.949982 -0.000015 0.000040
											CHANNELS 6 Xposition Yposition Zposition Xrotation Yrotation Zrotation
											JOINT mixamorig:LeftHandRing4
											{
												OFFSET 2.644348 0.000000 0.000057
												CHANNELS 6 Xposition Yposition Zposition Xrotation Yrotation Zrotation
												End Site
												{
													OFFSET 264.434631 0.000000 0.012105
												}
											}
										}
									}
								}
								JOINT mixamorig:LeftHandPinky1
								{
									OFFSET 8.077789 -0.486847 -3.806259
									CHANNELS 6 Xposition Yposition Zposition Xrotation Yrotation Zrotation
									JOINT mixamorig:LeftHandPinky2
									{
										OFFSET 3.599953 0.000031 0.014727
										CHANNELS 6 Xposition Yposition Zposition Xrotation Yrotation Zrotation
										JOINT mixamorig:LeftHandPinky3
										{
											OFFSET 2.100021 0.000015 0.007705
											CHANNELS 6 Xposition Yposition Zposition Xrotation Yrotation Zrotation
											JOINT mixamorig:LeftHandPinky4
											{
												OFFSET 2.125504 0.000031 0.007517
												CHANNELS 6 Xposition Yposition Zposition Xrotation Yrotation Zrotation
												End Site
												{
													OFFSET 212.550781 0.000000 0.625752
												}
											}
										}
									}
								}
							}
						}
					}
				}
			}
		}
	}
	JOINT mixamorig:RightUpLeg
	{
		OFFSET -8.207787 -6.751648 -1.599560
		CHANNELS 6 Xposition Yposition Zposition Xrotation Yrotation Zrotation
		JOINT mixamorig:RightLeg
		{
			OFFSET -0.000002 -44.370117 0.345942
			CHANNELS 6 Xposition Yposition Zposition Xrotation Yrotation Zrotation
			JOINT mixamorig:RightFoot
			{
				OFFSET 0.000003 -44.423679 -3.043532
				CHANNELS 6 Xposition Yposition Zposition Xrotation Yrotation Zrotation
				JOINT mixamorig:RightToeBase
				{
					OFFSET -0.000002 -8.728671 10.710558
					CHANNELS 6 Xposition Yposition Zposition Xrotation Yrotation Zrotation
					JOINT mixamorig:RightToe_End
					{
						OFFSET -0.000001 -0.000679 9.278119
						CHANNELS 6 Xposition Yposition Zposition Xrotation Yrotation Zrotation
						End Site
						{
							OFFSET 0.000000 -0.067690 927.812134
						}
					}
				}
			}
		}
	}
	JOINT mixamorig:LeftUpLeg
	{
		OFFSET 8.207793 -6.751686 -1.599556
		CHANNELS 6 Xposition Yposition Zposition Xrotation Yrotation Zrotation
		JOINT mixamorig:LeftLeg
		{
			OFFSET -0.000004 -44.370014 0.346954
			CHANNELS 6 Xposition Yposition Zposition Xrotation Yrotation Zrotation
			JOINT mixamorig:LeftFoot
			{
				OFFSET -0.000001 -44.423672 -3.044401
				CHANNELS 6 Xposition Yposition Zposition Xrotation Yrotation Zrotation
				JOINT mixamorig:LeftToeBase
				{
					OFFSET -0.000002 -8.728669 10.710558
					CHANNELS 6 Xposition Yposition Zposition Xrotation Yrotation Zrotation
					JOINT mixamorig:LeftToe_End
					{
						OFFSET -0.000003 -0.000679 9.278133
						CHANNELS 6 Xposition Yposition Zposition Xrotation Yrotation Zrotation
						End Site
						{
							OFFSET 0.000000 -0.068021 927.813477
						}
					}
				}
			}
		}
	}
}
MOTION
Frames: 3
Frame Time: 0.033333
0.000006 104.270477 1.554256 0.000010 0.000003 -0.000113 -0.000005 10.181587 0.131522 0.000001 -0.000003 0.000084 -0.000000 9.893967 -1.470711 0.000001 0.000000 -0.000000 -0.000000 9.220802 -1.370642 0.000000 -0.000000 -0.000000 0.000001 16.740433 -2.049030 0.000000 -0.000000 -0.000000 0.000000 9.617859 1.685014 0.000000 0.000000 0.000000 0.000002 22.037384 7.501101 0.000000 -0.000000 0.000000 -4.569968 11.014880 -2.160881 0.000008 0.000001 -0.000038 -10.592866 -0.524669 -2.232024 72.066945 6.106574 -4.444133 -27.841534 0.000021 0.000517 -57.086018 116.267810 82.372484 -28.328842 0.000021 0.000021 -0.000318 -0.000046 0.000006 -2.464452 -1.573934 2.682390 -29.846714 -154.522307 27.776313 -3.215275 -1.872550 1.924635 154.831660 33.845524 17.110672 -2.654933 -1.527891 1.513097 150.362913 26.251663 -37.114278 -2.018808 -1.152013 1.108068 -0.000003 0.000002 0.000007 -9.108384 -0.517566 2.260165 106.716904 17.017602 -22.808459 -3.700067 0.000320 0.001557 103.138349 12.238534 -15.360616 -2.850093 0.000381 -0.000241 102.741324 9.086361 -11.355769 -2.772195 -0.000018 -0.000019 -0.000001 0.000001 -0.000003 -9.532595 0.000264 0.000271 100.070659 17.241914 -20.679562 -3.700061 0.000329 0.004001 99.252388 12.291788 -14.323704 -2.950057 0.000345 -0.001771 100.600845 10.158935 -12.213875 -2.946622 0.000013 -0.000153 -0.000004 -0.000000 -0.000001 -9.103717 -0.042769 -1.864817 99.176608 19.658304 -22.950798 -3.379349 0.000326 -0.000773 100.372123 10.859313 -13.031335 -2.889743 0.000374 0.000683 104.440716 6.143031 -7.978499 -2.638804 -0.000010 0.000952 0.000001 -0.000002 0.000001 -8.076771 -0.486392 -3.806019 87.305336 19.210971 -18.196688 -3.600027 0.000280 -0.003504 88.466659 9.297140 -8.703088 -2.100026 0.000319 -0.005504 90.038812 4.236036 -4.023853 -2.115762 -0.000039 -0.003683 -0.000001 0.000002 -0.000003 4.570446 11.014691 -2.160851 -0.000018 0.000010 -0.000021 10.592356 -0.524527 -2.232293 71.876676 9.287047 -6.739108 27.841843 0.000106 -0.000200 104.939976 -64.073281 78.334121 28.328827 -0.000030 0.000024 0.000020 -0.000087 -0.000001 2.465946 -1.576129 2.681904 -46.140482 159.864881 6.523285 3.217756 -1.871724 1.916353 151.513799 -32.146097 -10.503038 2.656086 -1.528610 1.514441 141.993923 -27.792048 37.079912 2.020895 -1.154083 1.115141 0.000001 0.000003 0.000004 9.109388 -0.517842 2.259742 88.003572 -15.474492 14.938682 3.700047 0.000159 -0.000441 86.426803 -17.429396 16.406391 2.850043 0.000198 0.000220 85.818376 -14.463790 13.453356 2.774862 -0.000030 -0.000015 -0.000000 -0.000002 -0.000002 9.533455 0.000226 -0.000099 88.265947 -15.263663 14.805159 3.700060 0.000188 -0.000366 91.359968 -16.142256 16.521879 2.950065 0.000171 -0.000181 92.768859 -18.459088 19.359773 2.952865 -0.000013 0.000062 -0.000003 0.000001 0.000000 9.104590 -0.042843 -1.865230 87.377558 -13.862508 13.249576 3.150060 0.000223 -0.000094 94.893048 -12.835730 13.972651 2.950027 0.000200 -0.000085 97.538523 -13.855169 15.788425 2.644315 0.000030 0.000059 -0.000001 0.000000 0.000001 8.077842 -0.486703 -3.806418 82.066096 -15.065208 13.635362 3.599989 0.000209 0.014554 81.831219 -9.846030 8.964147 2.100034 0.000210 0.007544 85.623654 -9.083136 8.848610 2.125499 -0.000034 0.007514 0.000001 -0.000000 0.000002 -8.207786 -6.751667 -1.599560 -0.077001 -0.000003 0.000080 -0.000002 -44.370110 0.345938 0.153719 -0.000000 -0.000000 0.000000 -44.423679 -3.043532 -0.076700 0.000000 -0.000002 -0.000006 -8.728667 10.710559 -0.000009 -0.000000 -0.000000 -0.000001 -0.000679 9.278123 0.000000 -0.000000 -0.000000 8.207792 -6.751710 -1.599556 -0.074518 -0.000003 0.000081 -0.000002 -44.370014 0.346960 0.148822 0.000002 0.000000 -0.000001 -44.423664 -3.044403 -0.074314 0.000000 -0.000002 -0.000004 -8.728671 10.710558 0.000007 -0.000000 -0.000000 0.000000 -0.000680 9.278137 -0.000000 0.000000 -0.000001 
0.000006 104.270477 1.554256 0.000010 0.000003 -0.000113 -0.000005 10.181587 0.131522 0.000001 -0.000003 0.000084 -0.000000 9.893967 -1.470711 0.000001 0.000000 -0.000000 -0.000000 9.220802 -1.370642 0.000000 -0.000000 -0.000000 0.000001 16.740433 -2.049030 0.000000 -0.000000 -0.000000 0.000000 9.617859 1.685014 0.000000 0.000000 0.000000 0.000002 22.037384 7.501101 0.000000 -0.000000 0.000000 -4.569968 11.014880 -2.160881 0.000008 0.000001 -0.000038 -10.592871 -0.524674 -2.232022 72.088917 8.824301 -6.427684 -27.841530 0.000001 0.000522 -56.542758 116.055842 81.495946 -28.328814 0.000020 0.000023 -0.000318 -0.000045 0.000007 -2.464410 -1.573897 2.682351 -35.730533 -152.794036 14.987836 -3.215258 -1.872532 1.924631 152.258837 33.760262 20.477384 -2.654952 -1.527871 1.513068 149.091213 27.020992 -32.531791 -2.018837 -1.152010 1.108065 -0.000008 0.000003 -0.000000 -9.108385 -0.517566 2.260163 108.142727 16.174745 -22.252888 -3.700054 0.000317 0.001560 106.304033 11.966036 -15.891583 -2.850076 0.000372 -0.000219 105.541306 9.420693 -12.376557 -2.772159 -0.000017 -0.000020 -0.000000 -0.000000 0.000001 -9.532615 0.000247 0.000280 102.243745 18.912150 -23.523090 -3.700065 0.000336 0.004022 101.783418 12.668789 -15.435025 -2.950051 0.000339 -0.001778 103.834482 11.123081 -14.157710 -2.946626 -0.000000 -0.000151 -0.000001 -0.000001 0.000001 -9.103716 -0.042775 -1.864818 99.956697 21.543438 -25.475757 -3.379338 0.000319 -0.000790 99.582403 10.898782 -12.898285 -2.889756 0.000354 0.000686 105.269252 7.306649 -9.619440 -2.638830 -0.000001 0.000941 -0.000001 0.000000 0.000002 -8.076787 -0.486409 -3.806014 86.333236 23.700589 -22.118646 -3.600063 0.000270 -0.003509 87.503193 12.542471 -11.653966 -2.100020 0.000312 -0.005479 91.248261 6.562053 -6.479211 -2.115764 -0.000055 -0.003676 -0.000003 -0.000003 -0.000005 4.570446 11.014691 -2.160851 -0.000018 0.000010 -0.000021 10.592356 -0.524560 -2.232255 71.339468 19.301816 -13.917945 27.841831 0.000103 -0.000200 105.844211 -65.536498 80.846866 28.328789 -0.000027 0.000018 0.000021 -0.000088 -0.000001 2.466062 -1.576182 2.681896 -26.946988 157.509422 -35.164553 3.217774 -1.871725 1.916372 159.948291 -31.369440 0.694057 2.656110 -1.528640 1.514465 140.658361 -27.405185 50.858705 2.020894 -1.154081 1.115151 0.000000 0.000002 0.000004 9.109378 -0.517857 2.259733 88.619246 -18.304733 17.863622 3.700052 0.000158 -0.000470 86.958027 -13.327317 12.659724 2.850036 0.000196 0.000209 86.909014 -10.295019 9.755565 2.774879 -0.000016 -0.000029 0.000001 0.000001 0.000000 9.533463 0.000217 -0.000070 88.947026 -17.501608 17.178865 3.700046 0.000190 -0.000373 91.029988 -11.257504 11.457680 2.950058 0.000203 -0.000219 92.710795 -11.544453 12.102984 2.952859 -0.000020 0.000064 0.000001 0.000002 0.000003 9.104582 -0.042841 -1.865206 88.845584 -16.752695 16.425032 3.150043 0.000215 -0.000112 93.130900 -10.415766 10.999449 2.950022 0.000204 -0.000102 95.615579 -9.700447 10.697383 2.644337 0.000015 0.000060 0.000000 -0.000001 -0.000002 8.077845 -0.486714 -3.806403 82.607812 -19.050806 17.304709 3.600023 0.000205 0.014570 85.226820 -14.481406 13.808886 2.100024 0.000212 0.007553 88.288364 -10.480634 10.633414 2.125487 0.000002 0.007510 -0.000002 0.000004 0.000003 -8.207786 -6.751667 -1.599560 -0.077001 -0.000003 0.000080 -0.000002 -44.370110 0.345938 0.153719 -0.000000 -0.000000 0.000000 -44.423679 -3.043532 -0.076700 0.000000 -0.000002 -0.000006 -8.728667 10.710559 -0.000009 -0.000000 -0.000000 -0.000001 -0.000679 9.278123 0.000000 -0.000000 -0.000000 8.207792 -6.751710 -1.599556 -0.074518 -0.000003 0.000081 -0.000002 -44.370014 0.346960 0.148822 0.000002 0.000000 -0.000001 -44.423664 -3.044403 -0.074314 0.000000 -0.000002 -0.000004 -8.728671 10.710558 0.000007 -0.000000 -0.000000 0.000000 -0.000680 9.278137 -0.000000 0.000000 -0.000001 
0.000006 104.270477 1.554256 0.000010 0.000003 -0.000113 -0.000005 10.181587 0.131522 0.000001 -0.000003 0.000084 -0.000000 9.893967 -1.470711 0.000001 0.000000 -0.000000 -0.000000 9.220802 -1.370642 0.000000 -0.000000 -0.000000 0.000001 16.740433 -2.049030 0.000000 -0.000000 -0.000000 0.000000 9.617859 1.685014 0.000000 0.000000 0.000000 0.000002 22.037384 7.501101 0.000000 -0.000000 0.000000 -4.569968 11.014880 -2.160881 0.000008 0.000001 -0.000038 -10.592877 -0.524695 -2.231997 71.667174 13.305635 -9.628891 -27.841528 0.000011 0.000532 -55.432477 112.687138 76.551278 -28.328842 0.000020 0.000022 -0.000320 -0.000044 0.000006 -2.464406 -1.573881 2.682359 -37.553469 -153.782338 11.642574 -3.215245 -1.872547 1.924639 151.852235 33.848611 21.775873 -2.654951 -1.527886 1.513086 148.907413 27.047324 -32.563057 -2.018824 -1.152033 1.108072 -0.000000 -0.000002 0.000007 -9.108376 -0.517564 2.260159 108.002305 15.656663 -21.495652 -3.700064 0.000316 0.001554 106.403938 11.693286 -15.558623 -2.850077 0.000372 -0.000231 105.693359 9.314466 -12.270951 -2.772169 -0.000015 -0.000020 -0.000000 0.000000 -0.000001 -9.532611 0.000251 0.000292 102.505184 18.379093 -22.974743 -3.700074 0.000324 0.004003 101.973973 12.566238 -15.361266 -2.950059 0.000335 -0.001765 104.032032 11.235872 -14.351153 -2.946633 0.000001 -0.000156 0.000001 0.000000 0.000000 -9.103719 -0.042783 -1.864826 99.879065 21.098333 -24.920121 -3.379337 0.000314 -0.000785 99.797724 10.625962 -12.624257 -2.889755 0.000341 0.000688 105.670321 7.300959 -9.681758 -2.638819 0.000015 0.000940 0.000001 -0.000000 -0.000002 -8.076772 -0.486401 -3.806001 86.196789 23.237466 -21.632116 -3.600070 0.000262 -0.003523 87.228243 11.968539 -11.053416 -2.100013 0.000324 -0.005502 91.013807 6.145754 -6.030433 -2.115777 -0.000057 -0.003670 -0.000004 0.000004 -0.000006 4.570446 11.014691 -2.160851 -0.000018 0.000010 -0.000021 10.592355 -0.524554 -2.232263 71.346367 17.182082 -12.379229 27.841846 0.000112 -0.000220 106.701092 -65.636800 81.838213 28.328825 -0.000028 0.000018 0.000020 -0.000088 -0.000000 2.466074 -1.576177 2.681900 -26.263631 157.533532 -36.543223 3.217790 -1.871738 1.916380 159.974095 -31.357293 0.765449 2.656097 -1.528641 1.514469 140.029014 -27.567323 51.635745 2.020906 -1.154085 1.115149 0.000004 0.000001 0.000002 9.109369 -0.517862 2.259741 88.481952 -18.533295 18.044395 3.700035 0.000153 -0.000469 87.095062 -13.200566 12.569172 2.850056 0.000213 0.000201 86.959066 -10.067087 9.547748 2.774862 -0.000029 -0.000032 -0.000000 -0.000002 0.000001 9.533456 0.000202 -0.000075 88.564351 -17.815845 17.372960 3.700050 0.000189 -0.000395 91.079507 -11.085219 11.292037 2.950062 0.000192 -0.000201 92.634632 -11.046827 11.566414 2.952867 -0.000018 0.000068 0.000001 -0.000002 0.000003 9.104584 -0.042838 -1.865231 88.336578 -16.996495 16.518795 3.150046 0.000218 -0.000109 93.109070 -10.169659 10.735683 2.950030 0.000207 -0.000078 95.677160 -9.174340 10.128721 2.644316 0.000017 0.000060 -0.000000 -0.000000 -0.000003 8.077847 -0.486708 -3.806398 83.122207 -18.911445 17.334486 3.600026 0.000208 0.014572 85.838730 -14.294502 13.780967 2.100041 0.000215 0.007557 88.681824 -9.980084 10.214141 2.125506 -0.000014 0.007518 0.000001 0.000000 -0.000001 -8.207786 -6.751667 -1.599560 -0.077001 -0.000003 0.000080 -0.000002 -44.370110 0.345938 0.153719 -0.000000 -0.000000 0.000000 -44.423679 -3.043532 -0.076700 0.000000 -0.000002 -0.000006 -8.728667 10.710559 -0.000009 -0.000000 -0.000000 -0.000001 -0.000679 9.278123 0.000000 -0.000000 -0.000000 8.207792 -6.751710 -1.599556 -0.074518 -0.000003 0.000081 -0.000002 -44.370014 0.346960 0.148822 0.000002 0.000000 -0.000001 -44.423664 -3.044403 -0.074314 0.000000 -0.000002 -0.000004 -8.728671 10.710558 0.000007 -0.000000 -0.000000 0.000000 -0.000680 9.278137 -0.000000 0.000000 -0.000001 
